<?xml version="1.0" encoding="UTF-8"?>
<svg width="1200" height="800" viewBox="0 0 1200 800" xmlns="http://www.w3.org/2000/svg">
  <!-- Background -->
  <rect width="1200" height="800" fill="#8B5CF6"/>
  
  <!-- Buildings -->
  <rect x="100" y="400" width="120" height="300" fill="#7C3AED"/>
  <rect x="300" y="300" width="150" height="400" fill="#6D28D9"/>
  <rect x="500" y="500" width="100" height="200" fill="#5B21B6"/>
  <rect x="700" y="350" width="180" height="350" fill="#7C3AED"/>
  
  <!-- Windows -->
  <rect x="120" y="420" width="20" height="20" fill="white"/>
  <rect x="160" y="420" width="20" height="20" fill="white"/>
  <rect x="200" y="420" width="20" height="20" fill="white"/>
  
  <rect x="320" y="320" width="30" height="30" fill="white"/>
  <rect x="380" y="320" width="30" height="30" fill="white"/>
  <rect x="440" y="320" width="30" height="30" fill="white"/>
  
  <rect x="520" y="520" width="20" height="20" fill="white"/>
  <rect x="560" y="520" width="20" height="20" fill="white"/>
  
  <rect x="720" y="370" width="40" height="40" fill="white"/>
  <rect x="800" y="370" width="40" height="40" fill="white"/>
  <rect x="880" y="370" width="40" height="40" fill="white"/>
</svg> 